<svg xmlns="http://www.w3.org/2000/svg" viewBox="0 0 378.66 159.53"><defs><style>.cls-1{fill:#fff;}</style></defs><g id="Layer_2" data-name="Layer 2"><g id="Layer_1-2" data-name="Layer 1"><path class="cls-1" d="M139.24,28.6a64,64,0,0,1,11-14.95,54.1,54.1,0,0,1,4.68-4.23V3H153L77.35,91.64,1.9,3H0V156.58H29.44V78.82l47.91,57.8,48.13-57.8v77.76h10.74V125.74l1.22-1,10.81-9.16,6.65-5.63V51.5l-22.16-5.73.86-3.33A66.1,66.1,0,0,1,139.24,28.6Z"/><path class="cls-1" d="M271.16,130.52v26.07H139.65V127.32q4-3.36,10.82-9.16t14.61-12.31l15.55-13q7.78-6.52,13.66-11.37a103.19,103.19,0,0,0,11-10.21,42.24,42.24,0,0,0,6.2-8.53,23.85,23.85,0,0,0,2.63-7.58,50.58,50.58,0,0,0,.52-7.15,22.81,22.81,0,0,0-2.1-10.42A18.38,18.38,0,0,0,207,30.91a21.78,21.78,0,0,0-7.78-3.58,35.35,35.35,0,0,0-8.51-1.06,19.55,19.55,0,0,0-11.87,3.47,31.46,31.46,0,0,0-7.68,7.88,37.07,37.07,0,0,0-4.3,8.41c-.92,2.66-1.44,4.28-1.58,4.84v-.22L136.91,43.3a63.8,63.8,0,0,1,5.36-13.12,60,60,0,0,1,10.41-14.12,56.55,56.55,0,0,1,16-11.26Q178.12.21,190.72.21q13.67,0,23.75,4.31a50.51,50.51,0,0,1,16.71,11.14A43.71,43.71,0,0,1,241,31a48.87,48.87,0,0,1,3.16,17.13,56.24,56.24,0,0,1-2.21,16.19,52,52,0,0,1-6.52,13.87A84.67,84.67,0,0,1,225.09,90.8,159.36,159.36,0,0,1,211.53,103c-2,1.54-4.24,3.44-6.83,5.67s-5.4,4.59-8.41,7-6.09,5-9.25,7.56-6.2,5-9.14,7.25Z"/><path class="cls-1" d="M290,72.51V99H346.7a41.5,41.5,0,0,1-6.62,13.45,48.88,48.88,0,0,1-39.4,19.76A45.59,45.59,0,0,1,281,127.9a53.26,53.26,0,0,1-16-11.46,54.46,54.46,0,0,1-10.83-16.6,51.69,51.69,0,0,1,0-39.83A54.26,54.26,0,0,1,265.05,43.3a53.26,53.26,0,0,1,16-11.46,45.59,45.59,0,0,1,19.66-4.31,43.64,43.64,0,0,1,23.43,6.73,57.69,57.69,0,0,1,17.55,16.6l25.22-15.33A79.49,79.49,0,0,0,338.83,9.67a79.52,79.52,0,0,0-69.05-3.36A82.24,82.24,0,0,0,244.4,23.43c-.71.71-1.39,1.41-2.06,2.13a44.22,44.22,0,0,1,1.83,4.25,52.74,52.74,0,0,1,3.36,18.32,59.52,59.52,0,0,1-2.35,17.18,56.08,56.08,0,0,1-6.93,14.77A87.59,87.59,0,0,1,227.53,93.2c-1.49,1.51-3.05,3-4.7,4.56a72.65,72.65,0,0,0,4.33,13,82,82,0,0,0,9.45,16.34h38v28a76.87,76.87,0,0,0,26.09,4.42,81,81,0,0,0,28.47-5,78.37,78.37,0,0,0,24-14,73.33,73.33,0,0,0,17-21.34A69.07,69.07,0,0,0,378,92.27a45.86,45.86,0,0,0,.2-4.94c0-2.18.07-4.37.21-6.62q0-3.78.22-8.2Z"/></g></g></svg>