<svg xmlns="http://www.w3.org/2000/svg" viewBox="0 0 617.71 226.02"><defs><style>.cls-1{fill:#fff;}</style></defs><g id="Layer_2" data-name="Layer 2"><g id="Layer_1-2" data-name="Layer 1"><path class="cls-1" d="M49.43,176.06v49H40V200.27L24.68,218.72,9.39,200.27v24.82H0v-49H.6l24.08,28.3,24.14-28.3Z"/><path class="cls-1" d="M69.61,184.31v12.27H93.35v8.52H69.61v11.54H96.37v8.45H60.22V176H96.37v8.31Z"/><path class="cls-1" d="M115.42,225.09H106V176h22.3a18.48,18.48,0,0,1,6.89,1.24,15.4,15.4,0,0,1,5.34,3.48,16.12,16.12,0,0,1,3.46,5.37,18.41,18.41,0,0,1,1.24,6.81,17,17,0,0,1-2.79,9.72,15.59,15.59,0,0,1-7.42,6q6.18,8.17,12.22,16.5h-11.2q-2.94-3.83-5.75-7.72t-5.61-7.91h-9.29Zm0-24h12.9a7.59,7.59,0,0,0,2.64-.5,6.91,6.91,0,0,0,2.44-1.54,8.42,8.42,0,0,0,1.77-2.58,8.66,8.66,0,0,0,.7-3.62,14.39,14.39,0,0,0-.27-2.55,8.3,8.3,0,0,0-1.07-2.82,7,7,0,0,0-2.27-2.28,7.2,7.2,0,0,0-3.94-.94h-12.9Z"/><path class="cls-1" d="M202,198.26c0,.94-.06,1.81-.06,2.62s-.07,1.42-.07,2.11a12.33,12.33,0,0,1-.07,1.57,22.1,22.1,0,0,1-2.51,8.59,23.47,23.47,0,0,1-5.43,6.81,25.3,25.3,0,0,1-7.65,4.46,25.88,25.88,0,0,1-9.09,1.6,24.53,24.53,0,0,1-9.86-2,25.8,25.8,0,0,1-13.59-13.54,25,25,0,0,1,0-19.75,25.87,25.87,0,0,1,5.49-8.12,26.28,26.28,0,0,1,8.1-5.46,25.32,25.32,0,0,1,22,1.07,25.47,25.47,0,0,1,9,8.25l-8.05,4.89a18.44,18.44,0,0,0-5.6-5.29,13.82,13.82,0,0,0-7.48-2.15,14.65,14.65,0,0,0-6.27,1.37,17.08,17.08,0,0,0-8.55,9,16.53,16.53,0,0,0,0,12.71,17.29,17.29,0,0,0,3.46,5.3,16.88,16.88,0,0,0,5.09,3.65,14.51,14.51,0,0,0,6.27,1.38,15.75,15.75,0,0,0,4.9-.77,16.06,16.06,0,0,0,4.29-2.18,15.65,15.65,0,0,0,3.39-3.36,13.22,13.22,0,0,0,2.11-4.29H173.69v-8.45Z"/><path class="cls-1" d="M219.23,184.31v12.27H243v8.52H219.23v11.54H246v8.45H209.84V176H246v8.31Z"/><path class="cls-1" d="M313.85,184.31h-14v40.78h-9.39V184.31H276.37V176h37.48Z"/><path class="cls-1" d="M342.15,226a24.44,24.44,0,0,1-9.85-2,25.73,25.73,0,0,1-13.55-13.54,25.43,25.43,0,0,1,0-19.82,25.62,25.62,0,0,1,13.55-13.58,25.34,25.34,0,0,1,19.78,0,25.62,25.62,0,0,1,13.55,13.58,25.43,25.43,0,0,1,0,19.82A25.73,25.73,0,0,1,352.08,224,24.65,24.65,0,0,1,342.15,226Zm0-42.18a14.43,14.43,0,0,0-6.26,1.38,16.88,16.88,0,0,0-5.09,3.65,17.33,17.33,0,0,0-3.44,5.33,16.53,16.53,0,0,0,0,12.71,17.81,17.81,0,0,0,3.44,5.33,16.5,16.5,0,0,0,5.09,3.69,14.89,14.89,0,0,0,12.52,0,16.46,16.46,0,0,0,5.08-3.69,17.84,17.84,0,0,0,3.45-5.33,16.53,16.53,0,0,0,0-12.71,17.35,17.35,0,0,0-3.45-5.33,16.84,16.84,0,0,0-5.08-3.65A14.47,14.47,0,0,0,342.19,183.84Z"/><path class="cls-1" d="M446.57,198.26c0,.94-.07,1.81-.07,2.62s-.06,1.42-.06,2.11a14.56,14.56,0,0,1-.07,1.57,22.27,22.27,0,0,1-2.51,8.59,23.34,23.34,0,0,1-5.44,6.81,25.13,25.13,0,0,1-7.64,4.46,26,26,0,0,1-9.09,1.6,24.49,24.49,0,0,1-9.86-2,25.87,25.87,0,0,1-13.6-13.54,25.15,25.15,0,0,1,0-19.75,25.9,25.9,0,0,1,5.5-8.12,26.28,26.28,0,0,1,8.1-5.46,25.32,25.32,0,0,1,22,1.07,25.47,25.47,0,0,1,9,8.25l-8.05,4.89a18.44,18.44,0,0,0-5.6-5.29,13.84,13.84,0,0,0-7.48-2.15,14.62,14.62,0,0,0-6.27,1.37,17,17,0,0,0-8.55,9,16.53,16.53,0,0,0,0,12.71,17.45,17.45,0,0,0,3.45,5.3,17.05,17.05,0,0,0,5.1,3.65,14.48,14.48,0,0,0,6.27,1.38,15.75,15.75,0,0,0,4.9-.77,16.06,16.06,0,0,0,4.29-2.18,15.88,15.88,0,0,0,3.39-3.36,13.22,13.22,0,0,0,2.11-4.29H418.27v-8.45Z"/><path class="cls-1" d="M463.81,225.09h-9.39V176h22.3a18.48,18.48,0,0,1,6.89,1.24,15.4,15.4,0,0,1,5.34,3.48,16.12,16.12,0,0,1,3.46,5.37,18.41,18.41,0,0,1,1.24,6.81,17,17,0,0,1-2.79,9.72,15.59,15.59,0,0,1-7.42,6q6.18,8.17,12.22,16.5h-11.2q-2.94-3.83-5.75-7.72t-5.61-7.91h-9.29Zm0-24h12.9a7.59,7.59,0,0,0,2.64-.5,6.91,6.91,0,0,0,2.44-1.54,8.42,8.42,0,0,0,1.77-2.58,8.66,8.66,0,0,0,.7-3.62,14.39,14.39,0,0,0-.27-2.55,8.3,8.3,0,0,0-1.07-2.82,7,7,0,0,0-2.27-2.28,7.2,7.2,0,0,0-3.94-.94h-12.9Z"/><path class="cls-1" d="M525.64,226a24.46,24.46,0,0,1-9.86-2,25.73,25.73,0,0,1-13.55-13.54,25.43,25.43,0,0,1,0-19.82,25.62,25.62,0,0,1,13.55-13.58,25.34,25.34,0,0,1,19.78,0,25.62,25.62,0,0,1,13.55,13.58,25.43,25.43,0,0,1,0,19.82A25.73,25.73,0,0,1,535.56,224,24.6,24.6,0,0,1,525.64,226Zm0-42.18a14.43,14.43,0,0,0-6.26,1.38,16.84,16.84,0,0,0-5.08,3.65,17.35,17.35,0,0,0-3.45,5.33,16.53,16.53,0,0,0,0,12.71,17.84,17.84,0,0,0,3.45,5.33,16.46,16.46,0,0,0,5.08,3.69,14.89,14.89,0,0,0,12.52,0,16.46,16.46,0,0,0,5.08-3.69,17.84,17.84,0,0,0,3.45-5.33,16.53,16.53,0,0,0,0-12.71,17.35,17.35,0,0,0-3.45-5.33,16.84,16.84,0,0,0-5.08-3.65A14.43,14.43,0,0,0,525.67,183.84Z"/><path class="cls-1" d="M617.71,176.06l-18.3,49h-.94l-13.28-28.57-13.41,28.63h-.88l-18.1-49.09h10L572.38,203l12.47-26.89h.61l12.47,27,9.79-27Z"/><path class="cls-1" d="M258.77,28.6a63.43,63.43,0,0,1,11-14.95,51.3,51.3,0,0,1,4.68-4.23V3h-1.89L196.87,91.64,121.43,3h-1.9V156.58H149V78.82l47.91,57.8L245,78.82v77.76h10.74V125.74l1.22-1,10.8-9.16c2.15-1.82,4.38-3.69,6.66-5.63V51.5l-22.16-5.73.85-3.33A66.19,66.19,0,0,1,258.77,28.6Z"/><path class="cls-1" d="M390.68,130.52v26.07H259.17V127.32q4-3.36,10.83-9.16t14.61-12.31l15.55-13q7.77-6.52,13.66-11.37a104.17,104.17,0,0,0,11-10.21,42.64,42.64,0,0,0,6.2-8.53,23.81,23.81,0,0,0,2.62-7.58,49.16,49.16,0,0,0,.53-7.15,22.81,22.81,0,0,0-2.1-10.42,18.48,18.48,0,0,0-5.57-6.63,21.86,21.86,0,0,0-7.78-3.58,35.35,35.35,0,0,0-8.51-1.06,19.58,19.58,0,0,0-11.88,3.47,31.42,31.42,0,0,0-7.67,7.88A37.13,37.13,0,0,0,286.39,46c-.91,2.66-1.44,4.28-1.57,4.84v-.22L256.44,43.3a63.8,63.8,0,0,1,5.36-13.12,59.74,59.74,0,0,1,10.41-14.12,56.41,56.41,0,0,1,16-11.26Q297.63.21,310.25.21,323.92.21,334,4.52a50.72,50.72,0,0,1,16.71,11.14A43.71,43.71,0,0,1,360.48,31a49.08,49.08,0,0,1,3.15,17.13,56.24,56.24,0,0,1-2.2,16.19,52.3,52.3,0,0,1-6.52,13.87,84.13,84.13,0,0,1-10.3,12.61A157.65,157.65,0,0,1,331.06,103c-2,1.54-4.24,3.44-6.84,5.67s-5.39,4.59-8.4,7-6.1,5-9.25,7.56-6.2,5-9.14,7.25Z"/><path class="cls-1" d="M409.48,72.51V99h56.75a41.7,41.7,0,0,1-6.62,13.45,48.88,48.88,0,0,1-39.41,19.76,45.55,45.55,0,0,1-19.65-4.31,53.26,53.26,0,0,1-16-11.46,54.46,54.46,0,0,1-10.83-16.6,51.58,51.58,0,0,1,0-39.83A54.26,54.26,0,0,1,384.58,43.3a53.26,53.26,0,0,1,16-11.46,45.55,45.55,0,0,1,19.65-4.31,43.64,43.64,0,0,1,23.44,6.73,57.69,57.69,0,0,1,17.55,16.6L486.4,35.53a79.37,79.37,0,0,0-28-25.86,79.52,79.52,0,0,0-69.05-3.36,82.4,82.4,0,0,0-25.39,17.12c-.7.71-1.39,1.41-2.06,2.13a41.92,41.92,0,0,1,1.84,4.25,52.74,52.74,0,0,1,3.36,18.32,59.87,59.87,0,0,1-2.35,17.18,56.08,56.08,0,0,1-6.93,14.77A88.21,88.21,0,0,1,347.06,93.2c-1.49,1.51-3.05,3-4.7,4.56a73.42,73.42,0,0,0,4.32,13,82.52,82.52,0,0,0,9.45,16.34h38v28a76.91,76.91,0,0,0,26.09,4.42,81.07,81.07,0,0,0,28.48-5,78.32,78.32,0,0,0,24-14,73.16,73.16,0,0,0,17-21.34,68.9,68.9,0,0,0,7.89-26.9,42.87,42.87,0,0,0,.21-4.94c0-2.18.07-4.37.2-6.62,0-2.52.07-5.25.23-8.2Z"/></g></g></svg>